# xmcd
#
# Track frame offsets:
#	150
#	15958
#	26248
#	41364
#	54481
#	66940
#	83434
#	93972
#	104467
#	121869
#	137402
#	148359
#
# Disc length: 2114 seconds
#
# Revision: 1
# Processed by: cddbd v1.5.1PL2 Copyright (c) Steve Scherf et al.
# Submitted via: audiograbber 1.82.02
#
DISCID=9608400c
DTITLE=Mark Alan Threadgill - Mark Alan Threadgill
DYEAR=2000
DGENRE=Country
TTITLE0=Cold Hard Truth
TTITLE1=What Does Anybody Know About Love
TTITLE2=Not Enough Love
TTITLE3=I Have You
TTITLE4=Lucky Break
TTITLE5=As Lovers Go
TTITLE6=How About The Moon
TTITLE7=Gator Got Joe
TTITLE8=What Color Am I
TTITLE9=Love Is A Desire
TTITLE10=Too Hot To Handle
TTITLE11=All Night Long
EXTD=
EXTT0=
EXTT1=
EXTT2=
EXTT3=
EXTT4=
EXTT5=
EXTT6=
EXTT7=
EXTT8=
EXTT9=
EXTT10=
EXTT11=
PLAYORDER=
